<mxfile host="65bd71144e">
    <diagram id="lcMaYYeUUqjguFOIrA0t" name="Seite-1">
        <mxGraphModel dx="1202" dy="639" grid="1" gridSize="10" guides="1" tooltips="1" connect="1" arrows="1" fold="1" page="1" pageScale="1" pageWidth="827" pageHeight="1169" math="0" shadow="0">
            <root>
                <mxCell id="0"/>
                <mxCell id="1" parent="0"/>
                <mxCell id="2" value="" style="fontColor=#0066CC;verticalAlign=top;verticalLabelPosition=bottom;labelPosition=center;align=center;html=1;outlineConnect=0;fillColor=#CCCCCC;strokeColor=#6881B3;gradientColor=none;gradientDirection=north;strokeWidth=2;shape=mxgraph.networks.security_camera;fontFamily=Helvetica;" parent="1" vertex="1">
                    <mxGeometry x="40" y="40" width="60" height="50" as="geometry"/>
                </mxCell>
                <mxCell id="3" value="" style="fontColor=#0066CC;verticalAlign=top;verticalLabelPosition=bottom;labelPosition=center;align=center;html=1;outlineConnect=0;fillColor=#CCCCCC;strokeColor=#6881B3;gradientColor=none;gradientDirection=north;strokeWidth=2;shape=mxgraph.networks.user_male;fontFamily=Helvetica;" parent="1" vertex="1">
                    <mxGeometry x="40" y="120" width="40" height="100" as="geometry"/>
                </mxCell>
                <mxCell id="18" style="edgeStyle=none;html=1;exitX=0.99;exitY=0.5;exitDx=0;exitDy=0;exitPerimeter=0;entryX=1;entryY=0.5;entryDx=0;entryDy=0;fontSize=20;fontColor=#CCCCCC;endArrow=none;endFill=0;strokeColor=#CCCCCC;strokeWidth=5;startArrow=none;fontFamily=Helvetica;" parent="1" source="5" target="17" edge="1">
                    <mxGeometry relative="1" as="geometry"/>
                </mxCell>
                <mxCell id="4" value="" style="fontColor=#0066CC;verticalAlign=top;verticalLabelPosition=bottom;labelPosition=center;align=center;html=1;outlineConnect=0;fillColor=#CCCCCC;strokeColor=#6881B3;gradientColor=none;gradientDirection=north;strokeWidth=2;shape=mxgraph.networks.user_female;fontFamily=Helvetica;" parent="1" vertex="1">
                    <mxGeometry x="670" y="117" width="40" height="100" as="geometry"/>
                </mxCell>
                <mxCell id="16" style="edgeStyle=none;html=1;exitX=1;exitY=0.5;exitDx=0;exitDy=0;exitPerimeter=0;entryX=1;entryY=0.5;entryDx=0;entryDy=0;fontSize=20;fontColor=#CCCCCC;strokeColor=#CCCCCC;strokeWidth=5;endArrow=none;endFill=0;fontFamily=Helvetica;" parent="1" source="6" target="15" edge="1">
                    <mxGeometry relative="1" as="geometry"/>
                </mxCell>
                <mxCell id="6" value="" style="fontColor=#0066CC;verticalAlign=top;verticalLabelPosition=bottom;labelPosition=center;align=center;html=1;outlineConnect=0;fillColor=#CCCCCC;strokeColor=#6881B3;gradientColor=none;gradientDirection=north;strokeWidth=2;shape=mxgraph.networks.users;fillOpacity=60;fontFamily=Helvetica;" parent="1" vertex="1">
                    <mxGeometry x="240" y="120" width="90" height="100" as="geometry"/>
                </mxCell>
                <mxCell id="7" value="Managers" style="text;html=1;strokeColor=none;fillColor=none;align=left;verticalAlign=middle;whiteSpace=wrap;rounded=0;fontSize=24;fontColor=#0A0909;fontStyle=1;fontFamily=Helvetica;" parent="1" vertex="1">
                    <mxGeometry x="40" y="250" width="230" height="30" as="geometry"/>
                </mxCell>
                <mxCell id="8" value="VS." style="text;html=1;strokeColor=none;fillColor=none;align=left;verticalAlign=middle;whiteSpace=wrap;rounded=0;fontSize=24;fontColor=#0A0909;fontStyle=1;fontFamily=Helvetica;" parent="1" vertex="1">
                    <mxGeometry x="360" y="250" width="60" height="30" as="geometry"/>
                </mxCell>
                <mxCell id="9" value="Leaders" style="text;html=1;strokeColor=none;fillColor=none;align=left;verticalAlign=middle;whiteSpace=wrap;rounded=0;fontSize=24;fontColor=#0A0909;fontStyle=1;fontFamily=Helvetica;" parent="1" vertex="1">
                    <mxGeometry x="440" y="250" width="160" height="30" as="geometry"/>
                </mxCell>
                <mxCell id="10" value="&lt;font color=&quot;#000000&quot; style=&quot;font-size: 20px;&quot;&gt;Work&lt;/font&gt;" style="html=1;shape=mxgraph.infographic.ribbonSimple;notch1=0;notch2=20;align=center;verticalAlign=middle;fontSize=20;fontStyle=1;fillColor=#CCCCCC;strokeColor=#6881B3;strokeWidth=2;fontFamily=Helvetica;" parent="1" vertex="1">
                    <mxGeometry x="440" y="60" width="260" height="40" as="geometry"/>
                </mxCell>
                <mxCell id="11" value="&lt;font color=&quot;#000000&quot; style=&quot;font-size: 20px;&quot;&gt;Work&lt;/font&gt;" style="html=1;shape=mxgraph.infographic.ribbonSimple;notch1=0;notch2=20;align=center;verticalAlign=middle;fontSize=20;fontStyle=1;fillColor=#CCCCCC;strokeColor=#6881B3;strokeWidth=2;fontFamily=Helvetica;" parent="1" vertex="1">
                    <mxGeometry x="130" y="60" width="190" height="40" as="geometry"/>
                </mxCell>
                <mxCell id="15" value="&lt;b&gt;&lt;font&gt;WORK&lt;/font&gt;&lt;/b&gt;" style="ellipse;whiteSpace=wrap;html=1;aspect=fixed;fontSize=20;fontColor=#6881B3;strokeColor=#6881B3;strokeWidth=2;fillColor=#CCCCCC;sketch=1;fontFamily=Helvetica;" parent="1" vertex="1">
                    <mxGeometry x="110" y="140" width="80" height="80" as="geometry"/>
                </mxCell>
                <mxCell id="17" value="&lt;b&gt;&lt;font&gt;WORK&lt;/font&gt;&lt;/b&gt;" style="ellipse;whiteSpace=wrap;html=1;aspect=fixed;fontSize=20;fontColor=#6881B3;strokeColor=#6881B3;strokeWidth=2;fillColor=#CCCCCC;sketch=1;fontFamily=Helvetica;" parent="1" vertex="1">
                    <mxGeometry x="440" y="140" width="80" height="80" as="geometry"/>
                </mxCell>
                <mxCell id="5" value="" style="fontColor=#0066CC;verticalAlign=top;verticalLabelPosition=bottom;labelPosition=center;align=center;html=1;outlineConnect=0;fillColor=#CCCCCC;strokeColor=#6881B3;gradientColor=none;gradientDirection=north;strokeWidth=2;shape=mxgraph.networks.users;fillOpacity=60;fontFamily=Helvetica;" parent="1" vertex="1">
                    <mxGeometry x="550" y="117" width="90" height="100" as="geometry"/>
                </mxCell>
                <mxCell id="19" value="" style="edgeStyle=none;html=1;exitX=0.99;exitY=0.5;exitDx=0;exitDy=0;exitPerimeter=0;entryX=1;entryY=0.5;entryDx=0;entryDy=0;fontSize=20;fontColor=#CCCCCC;endArrow=none;endFill=0;strokeColor=#CCCCCC;strokeWidth=5;fontFamily=Helvetica;" parent="1" source="4" target="5" edge="1">
                    <mxGeometry relative="1" as="geometry">
                        <mxPoint x="709.6000000000001" y="160" as="sourcePoint"/>
                        <mxPoint x="520" y="180" as="targetPoint"/>
                    </mxGeometry>
                </mxCell>
                <mxCell id="22" value="" style="line;strokeWidth=4;direction=south;html=1;perimeter=backbonePerimeter;points=[];outlineConnect=0;sketch=1;fontSize=20;fontColor=#6881B3;fillColor=#6881B3;strokeColor=#6881B3;fontFamily=Helvetica;" parent="1" vertex="1">
                    <mxGeometry x="370" y="40" width="10" height="200" as="geometry"/>
                </mxCell>
            </root>
        </mxGraphModel>
    </diagram>
</mxfile>